<svg height="403pt" viewBox="-46 0 403 403.09416" width="403pt" xmlns="http://www.w3.org/2000/svg"><path d="m301.027344 351.09375c0-23.195312-65.136719-42-145.492188-42-80.351562 0-145.488281 18.804688-145.488281 42s65.136719 42 145.488281 42c80.355469 0 145.492188-18.804688 145.492188-42zm0 0" fill="#00efd1"/><path d="m203.417969 30.265625c19.359375 19.300781 25.21875 48.347656 14.847656 73.644531-10.367187 25.296875-34.929687 41.875-62.269531 42.035156h-.460938c-30.710937.054688-57.625-20.542968-65.597656-50.203124-7.972656-29.660157 4.988281-60.972657 31.589844-76.324219 26.601562-15.347657 60.199218-10.898438 81.890625 10.847656zm0 0" fill="#00acea"/><g fill="#083863"><path d="m178.84375 67.949219c2.234375 5.050781 8.140625 7.335937 13.191406 5.097656 5.050782-2.234375 7.332032-8.140625 5.097656-13.191406-5.957031-13.464844-18.042968-23.230469-32.460937-26.226563-5.410156-1.113281-10.699219 2.371094-11.808594 7.78125-1.113281 5.410156 2.371094 10.699219 7.78125 11.808594 8.085938 1.6875 14.863281 7.171875 18.199219 14.730469zm0 0"/><path d="m49.886719 390.402344c28.355469 8.183594 65.875 12.691406 105.648437 12.691406 39.777344 0 77.300782-4.507812 105.652344-12.691406 33.070312-9.546875 49.839844-22.773438 49.839844-39.308594s-16.769532-29.753906-49.839844-39.300781c-25.96875-7.5-59.625-11.898438-95.652344-12.585938v-143.863281c17.144532-2.0625 33.082032-9.863281 45.222656-22.136719 25.683594-25.589843 30.335938-65.507812 11.234376-96.320312-19.105469-30.8125-56.925782-44.394531-91.269532-32.773438-34.339844 11.625-56.140625 45.382813-52.605468 81.464844 3.535156 36.082031 31.476562 64.96875 67.417968 69.703125v143.921875c-36.023437.6875-69.679687 5.089844-95.648437 12.585937-33.070313 9.550782-49.839844 22.773438-49.839844 39.300782s16.769531 29.765625 49.839844 39.3125zm47.859375-312.367188c.125-26.09375 17.714844-48.867187 42.929687-55.578125 25.214844-6.707031 51.800781 4.3125 64.875 26.890625 13.070313 22.582032 9.390625 51.125-8.980469 69.652344-10.730468 10.796875-25.351562 16.824219-40.574218 16.722656h-.460938c-31.878906.015625-57.746094-25.804687-57.789062-57.6875zm-42.308594 252.96875c24.25-7 55.945312-11.121094 90.097656-11.796875v23.378907c0 5.519531 4.480469 10 10 10 5.523438 0 10-4.480469 10-10v-23.378907c34.160156.675781 65.851563 4.796875 90.101563 11.796875 29.03125 8.382813 35.386719 17.34375 35.386719 20.089844s-6.355469 11.714844-35.386719 20.09375c-26.601563 7.675781-62.148438 11.90625-100.101563 11.90625-37.949218 0-73.5-4.230469-100.097656-11.90625-29.03125-8.378906-35.386719-17.34375-35.386719-20.09375 0-2.746094 6.351563-11.707031 35.386719-20.089844zm0 0"/></g></svg>